<svg xmlns="http://www.w3.org/2000/svg" viewBox="0 0 102.4 26.68"><title>logo</title><path d="M8.4,19.74c-.11.06-.28.13-.49.22a6.1,6.1,0,0,1-.74.28,7.81,7.81,0,0,1-1,.25,5.26,5.26,0,0,1-1.12.12,4.26,4.26,0,0,1-1.18-.17,2.65,2.65,0,0,1-1-.52A2.4,2.4,0,0,1,2.27,19,2.77,2.77,0,0,1,2,17.81V7.36H0V5.85H2V.92h1.9V5.85H7.28V7.36H3.92v9.92a1.53,1.53,0,0,0,.57,1.19,2,2,0,0,0,1.19.37,3.66,3.66,0,0,0,1.43-.26,7.18,7.18,0,0,0,.79-.38Zm14.64.7h-1.9V12.29a6.53,6.53,0,0,0-.85-3.72,2.85,2.85,0,0,0-2.51-1.23,4.24,4.24,0,0,0-1.61.32,6,6,0,0,0-2.72,2.2,5.79,5.79,0,0,0-.77,1.65v8.93h-1.9V0h1.9V9.16a6.63,6.63,0,0,1,2.41-2.6,6.23,6.23,0,0,1,3.33-1,4.48,4.48,0,0,1,2.13.47A3.83,3.83,0,0,1,22,7.35a5.5,5.5,0,0,1,.81,2A11.58,11.58,0,0,1,23,11.9Zm10.36.28a7,7,0,0,1-2.93-.6,7.25,7.25,0,0,1-2.31-1.65A7.81,7.81,0,0,1,26.1,13.1a7.61,7.61,0,0,1,2-5.28A7.16,7.16,0,0,1,30.46,6.2a7,7,0,0,1,2.92-.6,6.86,6.86,0,0,1,2.92.6,6.75,6.75,0,0,1,2.28,1.64,7.65,7.65,0,0,1,1.49,2.38,7.56,7.56,0,0,1,.53,2.86v.44a1.05,1.05,0,0,1,0,.31H28.08A6.26,6.26,0,0,0,28.63,16a5.83,5.83,0,0,0,1.19,1.72,5.33,5.33,0,0,0,1.67,1.14,4.9,4.9,0,0,0,2,.4,5.15,5.15,0,0,0,1.4-.2,5.53,5.53,0,0,0,1.29-.52,4.74,4.74,0,0,0,1.06-.83A3.61,3.61,0,0,0,38,16.63l1.65.45a5.08,5.08,0,0,1-.95,1.47,6.63,6.63,0,0,1-1.43,1.15,6.86,6.86,0,0,1-1.79.75A7.9,7.9,0,0,1,33.4,20.72Zm5.38-8.34a5.94,5.94,0,0,0-.55-2.15,5.87,5.87,0,0,0-1.17-1.66,5.28,5.28,0,0,0-7.34,0,5.37,5.37,0,0,0-1.14,1.68,6.22,6.22,0,0,0-.52,2.13Zm20.75,2.94a4.74,4.74,0,0,1-.5,2.21,4.65,4.65,0,0,1-1.39,1.6,6.74,6.74,0,0,1-2,1,8.72,8.72,0,0,1-2.48.33h-9.6V.56H54.16A3.83,3.83,0,0,1,56,1a4.6,4.6,0,0,1,1.43,1.16,5.28,5.28,0,0,1,.91,1.62,5.48,5.48,0,0,1,.32,1.84A5.35,5.35,0,0,1,58,8.36a4.48,4.48,0,0,1-2.12,1.89,5.1,5.1,0,0,1,2.7,1.8A5.31,5.31,0,0,1,59.53,15.32Zm-3.89-.73a2.72,2.72,0,0,0-.19-1,2.63,2.63,0,0,0-.49-.86,2.22,2.22,0,0,0-.72-.57,2,2,0,0,0-.93-.21H47.38v5.23h5.74a2.25,2.25,0,0,0,1-.2,2.41,2.41,0,0,0,.8-.54,2.5,2.5,0,0,0,.53-.83A2.66,2.66,0,0,0,55.64,14.59ZM47.38,3.86v5h5.15a2.26,2.26,0,0,0,1.66-.68,2.43,2.43,0,0,0,.69-1.84,2.52,2.52,0,0,0-.63-1.82,2,2,0,0,0-1.55-.68ZM62.16,0h3.75V15.74A1.86,1.86,0,0,0,66.3,17a1.39,1.39,0,0,0,1.12.44,2.72,2.72,0,0,0,.75-.11,5.46,5.46,0,0,0,.77-.28l.5,2.85a7,7,0,0,1-1.77.56,8.6,8.6,0,0,1-1.82.2,3.74,3.74,0,0,1-2.73-.93,3.54,3.54,0,0,1-1-2.68ZM77.84,20.72a7.93,7.93,0,0,1-3.22-.62,7.21,7.21,0,0,1-2.42-1.66A7.48,7.48,0,0,1,70.67,16a8.13,8.13,0,0,1-.53-2.89,8.28,8.28,0,0,1,.53-2.91A7.48,7.48,0,0,1,72.2,7.8a7.24,7.24,0,0,1,2.42-1.67,8.78,8.78,0,0,1,6.43,0A7.45,7.45,0,0,1,83.46,7.8,7.28,7.28,0,0,1,85,10.22a7.85,7.85,0,0,1,.53,2.91A7.71,7.71,0,0,1,85,16a7.53,7.53,0,0,1-1.51,2.42,7,7,0,0,1-2.41,1.66A7.93,7.93,0,0,1,77.84,20.72ZM74,13.13a5.12,5.12,0,0,0,.3,1.78,4.41,4.41,0,0,0,.81,1.39,3.79,3.79,0,0,0,1.22.91,3.72,3.72,0,0,0,3,0,3.79,3.79,0,0,0,1.22-.91,4.38,4.38,0,0,0,.81-1.4,5,5,0,0,0,.3-1.8,5.29,5.29,0,0,0-.3-1.76,4.27,4.27,0,0,0-.81-1.4A3.52,3.52,0,0,0,79.35,9a3.67,3.67,0,0,0-3,0,3.85,3.85,0,0,0-1.22.93,4.17,4.17,0,0,0-.81,1.4A5.25,5.25,0,0,0,74,13.13Zm19.77,7.39a6,6,0,0,1-2.69-.58A6.66,6.66,0,0,1,89,18.33,7.28,7.28,0,0,1,87.64,16a8.67,8.67,0,0,1-.48-2.86,8.53,8.53,0,0,1,.5-3,7.65,7.65,0,0,1,1.4-2.41A6.34,6.34,0,0,1,94,5.52a5.65,5.65,0,0,1,3,.77,6.42,6.42,0,0,1,2.13,2.05V5.76h3.28v14a6.52,6.52,0,0,1-.62,2.91,6.36,6.36,0,0,1-1.69,2.19,7.73,7.73,0,0,1-2.58,1.37,10.94,10.94,0,0,1-3.26.47,9.11,9.11,0,0,1-4-.8,8.19,8.19,0,0,1-2.81-2.25l2-2a5.73,5.73,0,0,0,2.12,1.62,6.11,6.11,0,0,0,2.7.59,5.85,5.85,0,0,0,1.66-.24,4,4,0,0,0,1.42-.74,3.39,3.39,0,0,0,1-1.29,4.31,4.31,0,0,0,.35-1.84V17.89a4.86,4.86,0,0,1-2,1.95A5.91,5.91,0,0,1,93.77,20.52Zm1.26-3a3.4,3.4,0,0,0,1.18-.2,3.59,3.59,0,0,0,1-.53,3.9,3.9,0,0,0,.84-.78,3.4,3.4,0,0,0,.56-1v-3.5a4.57,4.57,0,0,0-1.58-2.08,3.81,3.81,0,0,0-2.25-.78,3.17,3.17,0,0,0-1.57.38,3.88,3.88,0,0,0-1.2,1,4.55,4.55,0,0,0-.77,1.44A5.32,5.32,0,0,0,91,13.21a4.63,4.63,0,0,0,.31,1.68,4.35,4.35,0,0,0,.86,1.37,4,4,0,0,0,1.27.92,3.8,3.8,0,0,0,1.59.35Z" fill="#ff7e6d"/></svg>